<svg width="300" height="300" viewBox="0 0 300 300" fill="none" xmlns="http://www.w3.org/2000/svg">
<g clip-path="url(#clip0_2_303)">
<path d="M14.4714 210.313C9.18258 210.313 6.56402 216.735 10.3447 220.433L81.6653 290.203C85.4012 293.858 91.6933 291.211 91.6933 285.985V239.524C91.6933 237.407 90.8404 235.38 89.3273 233.899L67.5107 212.557C66.0404 211.119 64.0653 210.313 62.0084 210.313H14.4714Z" fill="#5FE896"/>
<path d="M228.051 115.849C230.682 111.929 227.872 106.66 223.151 106.66H159.388C156.129 106.66 153.487 109.302 153.487 112.561V145.609C153.487 148.868 156.129 151.51 159.388 151.51H200.978C202.945 151.51 204.783 150.53 205.879 148.897L228.051 115.849Z" fill="#7B98FF"/>
<path d="M296.792 14.1978C299.432 10.2779 296.623 5 291.897 5H159.388C156.129 5 153.487 7.64211 153.487 10.9013V43.9487C153.487 47.2079 156.129 49.85 159.388 49.85H269.641C271.604 49.85 273.439 48.8736 274.536 47.2452L296.792 14.1978Z" fill="#7B98FF"/>
<path d="M99.6665 12.8684C99.6665 8.52281 103.189 5 107.535 5H137.645C141.99 5 145.513 8.52281 145.513 12.8684V233.64C145.513 235.209 145.045 236.741 144.167 238.041L109.56 289.335C106.576 293.759 99.6665 291.647 99.6665 286.31V12.8684Z" fill="#6DC0CB"/>
</g>
<defs>
<clipPath id="clip0_2_303">
<rect width="300" height="300" rx="4" fill="white"/>
</clipPath>
</defs>
</svg>
